<mxfile host="app.diagrams.net" modified="2020-12-01T08:48:23.366Z" agent="5.0 (X11; Linux x86_64) AppleWebKit/537.36 (KHTML, like Gecko) Chrome/83.0.4103.116 Safari/537.36" etag="gAH13eisis2NgS0NeUuZ" version="13.10.4" type="github" pages="2">
  <diagram id="JyJ6xVFc3YY0AiofLXzW" name="MLP">
    <mxGraphModel dx="1422" dy="801" grid="1" gridSize="10" guides="1" tooltips="1" connect="1" arrows="1" fold="1" page="1" pageScale="1" pageWidth="1169" pageHeight="827" math="0" shadow="0">
      <root>
        <mxCell id="0" />
        <mxCell id="1" parent="0" />
        <mxCell id="rhokNy42Wqrk1_lM66Hx-14" style="edgeStyle=none;rounded=0;orthogonalLoop=1;jettySize=auto;html=1;entryX=0;entryY=0.5;entryDx=0;entryDy=0;endArrow=none;endFill=0;targetPerimeterSpacing=0;exitX=1;exitY=0.5;exitDx=0;exitDy=0;" parent="1" source="rhokNy42Wqrk1_lM66Hx-1" target="rhokNy42Wqrk1_lM66Hx-4" edge="1">
          <mxGeometry relative="1" as="geometry" />
        </mxCell>
        <mxCell id="rhokNy42Wqrk1_lM66Hx-15" style="edgeStyle=none;rounded=0;orthogonalLoop=1;jettySize=auto;html=1;entryX=0;entryY=0.5;entryDx=0;entryDy=0;endArrow=none;endFill=0;targetPerimeterSpacing=0;exitX=1;exitY=0.5;exitDx=0;exitDy=0;" parent="1" source="rhokNy42Wqrk1_lM66Hx-1" target="rhokNy42Wqrk1_lM66Hx-5" edge="1">
          <mxGeometry relative="1" as="geometry" />
        </mxCell>
        <mxCell id="rhokNy42Wqrk1_lM66Hx-16" style="edgeStyle=none;rounded=0;orthogonalLoop=1;jettySize=auto;html=1;entryX=0;entryY=0.5;entryDx=0;entryDy=0;endArrow=none;endFill=0;targetPerimeterSpacing=0;exitX=1;exitY=0.5;exitDx=0;exitDy=0;" parent="1" source="rhokNy42Wqrk1_lM66Hx-1" target="rhokNy42Wqrk1_lM66Hx-6" edge="1">
          <mxGeometry relative="1" as="geometry" />
        </mxCell>
        <mxCell id="rhokNy42Wqrk1_lM66Hx-17" style="edgeStyle=none;rounded=0;orthogonalLoop=1;jettySize=auto;html=1;entryX=0;entryY=0.5;entryDx=0;entryDy=0;endArrow=none;endFill=0;targetPerimeterSpacing=0;exitX=1;exitY=0.5;exitDx=0;exitDy=0;" parent="1" source="rhokNy42Wqrk1_lM66Hx-1" target="rhokNy42Wqrk1_lM66Hx-7" edge="1">
          <mxGeometry relative="1" as="geometry" />
        </mxCell>
        <mxCell id="rhokNy42Wqrk1_lM66Hx-1" value="" style="ellipse;whiteSpace=wrap;html=1;aspect=fixed;" parent="1" vertex="1">
          <mxGeometry x="240" y="200" width="80" height="80" as="geometry" />
        </mxCell>
        <mxCell id="rhokNy42Wqrk1_lM66Hx-18" style="edgeStyle=none;rounded=0;orthogonalLoop=1;jettySize=auto;html=1;entryX=0;entryY=0.5;entryDx=0;entryDy=0;endArrow=none;endFill=0;targetPerimeterSpacing=0;exitX=1;exitY=0.5;exitDx=0;exitDy=0;" parent="1" source="rhokNy42Wqrk1_lM66Hx-2" target="rhokNy42Wqrk1_lM66Hx-4" edge="1">
          <mxGeometry relative="1" as="geometry" />
        </mxCell>
        <mxCell id="rhokNy42Wqrk1_lM66Hx-19" style="edgeStyle=none;rounded=0;orthogonalLoop=1;jettySize=auto;html=1;entryX=0;entryY=0.5;entryDx=0;entryDy=0;endArrow=none;endFill=0;targetPerimeterSpacing=0;" parent="1" target="rhokNy42Wqrk1_lM66Hx-5" edge="1">
          <mxGeometry relative="1" as="geometry">
            <mxPoint x="320" y="360" as="sourcePoint" />
          </mxGeometry>
        </mxCell>
        <mxCell id="rhokNy42Wqrk1_lM66Hx-20" style="edgeStyle=none;rounded=0;orthogonalLoop=1;jettySize=auto;html=1;entryX=0;entryY=0.5;entryDx=0;entryDy=0;endArrow=none;endFill=0;targetPerimeterSpacing=0;exitX=1;exitY=0.5;exitDx=0;exitDy=0;" parent="1" source="rhokNy42Wqrk1_lM66Hx-2" target="rhokNy42Wqrk1_lM66Hx-6" edge="1">
          <mxGeometry relative="1" as="geometry" />
        </mxCell>
        <mxCell id="rhokNy42Wqrk1_lM66Hx-21" style="edgeStyle=none;rounded=0;orthogonalLoop=1;jettySize=auto;html=1;entryX=0;entryY=0.5;entryDx=0;entryDy=0;endArrow=none;endFill=0;targetPerimeterSpacing=0;exitX=1;exitY=0.5;exitDx=0;exitDy=0;" parent="1" source="rhokNy42Wqrk1_lM66Hx-2" target="rhokNy42Wqrk1_lM66Hx-7" edge="1">
          <mxGeometry relative="1" as="geometry" />
        </mxCell>
        <mxCell id="rhokNy42Wqrk1_lM66Hx-2" value="" style="ellipse;whiteSpace=wrap;html=1;aspect=fixed;" parent="1" vertex="1">
          <mxGeometry x="240" y="320" width="80" height="80" as="geometry" />
        </mxCell>
        <mxCell id="rhokNy42Wqrk1_lM66Hx-22" style="edgeStyle=none;rounded=0;orthogonalLoop=1;jettySize=auto;html=1;entryX=0;entryY=0.5;entryDx=0;entryDy=0;endArrow=none;endFill=0;targetPerimeterSpacing=0;exitX=1;exitY=0.5;exitDx=0;exitDy=0;" parent="1" source="rhokNy42Wqrk1_lM66Hx-3" target="rhokNy42Wqrk1_lM66Hx-4" edge="1">
          <mxGeometry relative="1" as="geometry" />
        </mxCell>
        <mxCell id="rhokNy42Wqrk1_lM66Hx-23" style="edgeStyle=none;rounded=0;orthogonalLoop=1;jettySize=auto;html=1;entryX=0;entryY=0.5;entryDx=0;entryDy=0;endArrow=none;endFill=0;targetPerimeterSpacing=0;exitX=1;exitY=0.5;exitDx=0;exitDy=0;" parent="1" source="rhokNy42Wqrk1_lM66Hx-3" target="rhokNy42Wqrk1_lM66Hx-5" edge="1">
          <mxGeometry relative="1" as="geometry" />
        </mxCell>
        <mxCell id="rhokNy42Wqrk1_lM66Hx-24" style="edgeStyle=none;rounded=0;orthogonalLoop=1;jettySize=auto;html=1;entryX=0;entryY=0.5;entryDx=0;entryDy=0;endArrow=none;endFill=0;targetPerimeterSpacing=0;" parent="1" target="rhokNy42Wqrk1_lM66Hx-6" edge="1">
          <mxGeometry relative="1" as="geometry">
            <mxPoint x="320" y="480" as="sourcePoint" />
          </mxGeometry>
        </mxCell>
        <mxCell id="rhokNy42Wqrk1_lM66Hx-25" style="edgeStyle=none;rounded=0;orthogonalLoop=1;jettySize=auto;html=1;entryX=0;entryY=0.5;entryDx=0;entryDy=0;endArrow=none;endFill=0;targetPerimeterSpacing=0;exitX=1;exitY=0.5;exitDx=0;exitDy=0;" parent="1" source="rhokNy42Wqrk1_lM66Hx-3" target="rhokNy42Wqrk1_lM66Hx-7" edge="1">
          <mxGeometry relative="1" as="geometry" />
        </mxCell>
        <mxCell id="rhokNy42Wqrk1_lM66Hx-3" value="" style="ellipse;whiteSpace=wrap;html=1;aspect=fixed;" parent="1" vertex="1">
          <mxGeometry x="240" y="440" width="80" height="80" as="geometry" />
        </mxCell>
        <mxCell id="rhokNy42Wqrk1_lM66Hx-26" style="edgeStyle=none;rounded=0;orthogonalLoop=1;jettySize=auto;html=1;entryX=0;entryY=0.5;entryDx=0;entryDy=0;endArrow=none;endFill=0;targetPerimeterSpacing=0;exitX=1;exitY=0.5;exitDx=0;exitDy=0;" parent="1" source="rhokNy42Wqrk1_lM66Hx-4" target="rhokNy42Wqrk1_lM66Hx-8" edge="1">
          <mxGeometry relative="1" as="geometry" />
        </mxCell>
        <mxCell id="rhokNy42Wqrk1_lM66Hx-27" style="edgeStyle=none;rounded=0;orthogonalLoop=1;jettySize=auto;html=1;entryX=0;entryY=0.5;entryDx=0;entryDy=0;endArrow=none;endFill=0;targetPerimeterSpacing=0;exitX=1;exitY=0.5;exitDx=0;exitDy=0;" parent="1" source="rhokNy42Wqrk1_lM66Hx-4" target="rhokNy42Wqrk1_lM66Hx-9" edge="1">
          <mxGeometry relative="1" as="geometry" />
        </mxCell>
        <mxCell id="rhokNy42Wqrk1_lM66Hx-4" value="" style="ellipse;whiteSpace=wrap;html=1;aspect=fixed;" parent="1" vertex="1">
          <mxGeometry x="400" y="140" width="80" height="80" as="geometry" />
        </mxCell>
        <mxCell id="rhokNy42Wqrk1_lM66Hx-28" style="edgeStyle=none;rounded=0;orthogonalLoop=1;jettySize=auto;html=1;entryX=0;entryY=0.5;entryDx=0;entryDy=0;endArrow=none;endFill=0;targetPerimeterSpacing=0;exitX=1;exitY=0.5;exitDx=0;exitDy=0;" parent="1" source="rhokNy42Wqrk1_lM66Hx-5" target="rhokNy42Wqrk1_lM66Hx-8" edge="1">
          <mxGeometry relative="1" as="geometry" />
        </mxCell>
        <mxCell id="rhokNy42Wqrk1_lM66Hx-29" style="edgeStyle=none;rounded=0;orthogonalLoop=1;jettySize=auto;html=1;entryX=0;entryY=0.5;entryDx=0;entryDy=0;endArrow=none;endFill=0;targetPerimeterSpacing=0;exitX=1;exitY=0.5;exitDx=0;exitDy=0;" parent="1" source="rhokNy42Wqrk1_lM66Hx-5" target="rhokNy42Wqrk1_lM66Hx-9" edge="1">
          <mxGeometry relative="1" as="geometry" />
        </mxCell>
        <mxCell id="rhokNy42Wqrk1_lM66Hx-5" value="" style="ellipse;whiteSpace=wrap;html=1;aspect=fixed;" parent="1" vertex="1">
          <mxGeometry x="400" y="260" width="80" height="80" as="geometry" />
        </mxCell>
        <mxCell id="rhokNy42Wqrk1_lM66Hx-30" style="edgeStyle=none;rounded=0;orthogonalLoop=1;jettySize=auto;html=1;entryX=0;entryY=0.5;entryDx=0;entryDy=0;endArrow=none;endFill=0;targetPerimeterSpacing=0;exitX=1;exitY=0.5;exitDx=0;exitDy=0;" parent="1" source="rhokNy42Wqrk1_lM66Hx-6" target="rhokNy42Wqrk1_lM66Hx-8" edge="1">
          <mxGeometry relative="1" as="geometry" />
        </mxCell>
        <mxCell id="rhokNy42Wqrk1_lM66Hx-31" style="edgeStyle=none;rounded=0;orthogonalLoop=1;jettySize=auto;html=1;entryX=0;entryY=0.5;entryDx=0;entryDy=0;endArrow=none;endFill=0;targetPerimeterSpacing=0;exitX=1;exitY=0.5;exitDx=0;exitDy=0;" parent="1" source="rhokNy42Wqrk1_lM66Hx-6" target="rhokNy42Wqrk1_lM66Hx-9" edge="1">
          <mxGeometry relative="1" as="geometry" />
        </mxCell>
        <mxCell id="rhokNy42Wqrk1_lM66Hx-6" value="" style="ellipse;whiteSpace=wrap;html=1;aspect=fixed;" parent="1" vertex="1">
          <mxGeometry x="400" y="380" width="80" height="80" as="geometry" />
        </mxCell>
        <mxCell id="rhokNy42Wqrk1_lM66Hx-32" style="edgeStyle=none;rounded=0;orthogonalLoop=1;jettySize=auto;html=1;entryX=0;entryY=0.5;entryDx=0;entryDy=0;endArrow=none;endFill=0;targetPerimeterSpacing=0;exitX=1;exitY=0.5;exitDx=0;exitDy=0;" parent="1" source="rhokNy42Wqrk1_lM66Hx-7" target="rhokNy42Wqrk1_lM66Hx-8" edge="1">
          <mxGeometry relative="1" as="geometry" />
        </mxCell>
        <mxCell id="rhokNy42Wqrk1_lM66Hx-33" style="edgeStyle=none;rounded=0;orthogonalLoop=1;jettySize=auto;html=1;entryX=0;entryY=0.5;entryDx=0;entryDy=0;endArrow=none;endFill=0;targetPerimeterSpacing=0;exitX=1;exitY=0.5;exitDx=0;exitDy=0;" parent="1" source="rhokNy42Wqrk1_lM66Hx-7" target="rhokNy42Wqrk1_lM66Hx-9" edge="1">
          <mxGeometry relative="1" as="geometry" />
        </mxCell>
        <mxCell id="rhokNy42Wqrk1_lM66Hx-7" value="" style="ellipse;whiteSpace=wrap;html=1;aspect=fixed;" parent="1" vertex="1">
          <mxGeometry x="400" y="500" width="80" height="80" as="geometry" />
        </mxCell>
        <mxCell id="rhokNy42Wqrk1_lM66Hx-8" value="" style="ellipse;whiteSpace=wrap;html=1;aspect=fixed;" parent="1" vertex="1">
          <mxGeometry x="560" y="260" width="80" height="80" as="geometry" />
        </mxCell>
        <mxCell id="rhokNy42Wqrk1_lM66Hx-9" value="" style="ellipse;whiteSpace=wrap;html=1;aspect=fixed;" parent="1" vertex="1">
          <mxGeometry x="560" y="380" width="80" height="80" as="geometry" />
        </mxCell>
        <mxCell id="rhokNy42Wqrk1_lM66Hx-34" value="" style="endArrow=none;dashed=1;html=1;entryX=0.5;entryY=0;entryDx=0;entryDy=0;" parent="1" target="rhokNy42Wqrk1_lM66Hx-1" edge="1">
          <mxGeometry width="50" height="50" relative="1" as="geometry">
            <mxPoint x="160" y="200" as="sourcePoint" />
            <mxPoint x="220" y="180" as="targetPoint" />
          </mxGeometry>
        </mxCell>
        <mxCell id="rhokNy42Wqrk1_lM66Hx-35" value="" style="endArrow=none;dashed=1;html=1;entryX=0.5;entryY=1;entryDx=0;entryDy=0;" parent="1" target="rhokNy42Wqrk1_lM66Hx-3" edge="1">
          <mxGeometry width="50" height="50" relative="1" as="geometry">
            <mxPoint x="160" y="520" as="sourcePoint" />
            <mxPoint x="250" y="550" as="targetPoint" />
          </mxGeometry>
        </mxCell>
        <mxCell id="rhokNy42Wqrk1_lM66Hx-36" value="" style="endArrow=classic;startArrow=classic;html=1;" parent="1" edge="1">
          <mxGeometry width="50" height="50" relative="1" as="geometry">
            <mxPoint x="160" y="520" as="sourcePoint" />
            <mxPoint x="160" y="200" as="targetPoint" />
          </mxGeometry>
        </mxCell>
        <mxCell id="rhokNy42Wqrk1_lM66Hx-37" value="Input_size" style="text;html=1;align=center;verticalAlign=middle;resizable=0;points=[];autosize=1;" parent="1" vertex="1">
          <mxGeometry x="90" y="350" width="70" height="20" as="geometry" />
        </mxCell>
        <mxCell id="rhokNy42Wqrk1_lM66Hx-39" value="" style="endArrow=none;dashed=1;html=1;exitX=0.5;exitY=0;exitDx=0;exitDy=0;" parent="1" source="rhokNy42Wqrk1_lM66Hx-8" edge="1">
          <mxGeometry width="50" height="50" relative="1" as="geometry">
            <mxPoint x="870" y="430" as="sourcePoint" />
            <mxPoint x="720" y="260" as="targetPoint" />
          </mxGeometry>
        </mxCell>
        <mxCell id="rhokNy42Wqrk1_lM66Hx-40" value="" style="endArrow=none;dashed=1;html=1;exitX=0.5;exitY=1;exitDx=0;exitDy=0;" parent="1" source="rhokNy42Wqrk1_lM66Hx-9" edge="1">
          <mxGeometry width="50" height="50" relative="1" as="geometry">
            <mxPoint x="870" y="430" as="sourcePoint" />
            <mxPoint x="720" y="460" as="targetPoint" />
          </mxGeometry>
        </mxCell>
        <mxCell id="rhokNy42Wqrk1_lM66Hx-41" value="" style="endArrow=classic;startArrow=classic;html=1;" parent="1" edge="1">
          <mxGeometry width="50" height="50" relative="1" as="geometry">
            <mxPoint x="720" y="460" as="sourcePoint" />
            <mxPoint x="720" y="260" as="targetPoint" />
          </mxGeometry>
        </mxCell>
        <mxCell id="rhokNy42Wqrk1_lM66Hx-42" value="Output_size" style="text;html=1;align=center;verticalAlign=middle;resizable=0;points=[];autosize=1;" parent="1" vertex="1">
          <mxGeometry x="730" y="350" width="80" height="20" as="geometry" />
        </mxCell>
        <mxCell id="rhokNy42Wqrk1_lM66Hx-43" value="" style="endArrow=none;dashed=1;html=1;exitX=0.5;exitY=0;exitDx=0;exitDy=0;" parent="1" source="rhokNy42Wqrk1_lM66Hx-4" edge="1">
          <mxGeometry width="50" height="50" relative="1" as="geometry">
            <mxPoint x="870" y="430" as="sourcePoint" />
            <mxPoint x="880" y="140" as="targetPoint" />
          </mxGeometry>
        </mxCell>
        <mxCell id="rhokNy42Wqrk1_lM66Hx-44" value="" style="endArrow=none;dashed=1;html=1;exitX=0.5;exitY=1;exitDx=0;exitDy=0;" parent="1" source="rhokNy42Wqrk1_lM66Hx-7" edge="1">
          <mxGeometry width="50" height="50" relative="1" as="geometry">
            <mxPoint x="535" y="610" as="sourcePoint" />
            <mxPoint x="880" y="580" as="targetPoint" />
          </mxGeometry>
        </mxCell>
        <mxCell id="rhokNy42Wqrk1_lM66Hx-45" value="" style="endArrow=classic;startArrow=classic;html=1;" parent="1" edge="1">
          <mxGeometry width="50" height="50" relative="1" as="geometry">
            <mxPoint x="880" y="580" as="sourcePoint" />
            <mxPoint x="880" y="140" as="targetPoint" />
          </mxGeometry>
        </mxCell>
        <mxCell id="rhokNy42Wqrk1_lM66Hx-46" value="Layer_width" style="text;html=1;align=center;verticalAlign=middle;resizable=0;points=[];autosize=1;" parent="1" vertex="1">
          <mxGeometry x="880" y="350" width="80" height="20" as="geometry" />
        </mxCell>
      </root>
    </mxGraphModel>
  </diagram>
  <diagram id="x3CILxHqNGbqH-ClGa6w" name="RNN input shape">
    <mxGraphModel dx="1248" dy="712" grid="1" gridSize="10" guides="1" tooltips="1" connect="1" arrows="1" fold="1" page="1" pageScale="1" pageWidth="1169" pageHeight="827" math="0" shadow="0">
      <root>
        <mxCell id="AFiXjeC6E8ipY5qLFKD8-0" />
        <mxCell id="AFiXjeC6E8ipY5qLFKD8-1" parent="AFiXjeC6E8ipY5qLFKD8-0" />
        <mxCell id="AFiXjeC6E8ipY5qLFKD8-2" value="Recurrent Neural Net input shape" style="shape=cube;whiteSpace=wrap;html=1;boundedLbl=1;backgroundOutline=1;darkOpacity=0.05;darkOpacity2=0.1;size=50;verticalAlign=top;" vertex="1" parent="AFiXjeC6E8ipY5qLFKD8-1">
          <mxGeometry x="190" y="120" width="650" height="330" as="geometry" />
        </mxCell>
        <mxCell id="AFiXjeC6E8ipY5qLFKD8-13" style="rounded=0;orthogonalLoop=1;jettySize=auto;html=1;entryX=0;entryY=0.5;entryDx=0;entryDy=0;endArrow=none;endFill=0;" edge="1" parent="AFiXjeC6E8ipY5qLFKD8-1" source="AFiXjeC6E8ipY5qLFKD8-3" target="AFiXjeC6E8ipY5qLFKD8-8">
          <mxGeometry relative="1" as="geometry" />
        </mxCell>
        <mxCell id="AFiXjeC6E8ipY5qLFKD8-3" value="&lt;font style=&quot;font-size: 14px&quot;&gt;f&lt;sub&gt;1&lt;/sub&gt;t&lt;sub&gt;1&lt;/sub&gt;&lt;/font&gt;" style="ellipse;whiteSpace=wrap;html=1;aspect=fixed;" vertex="1" parent="AFiXjeC6E8ipY5qLFKD8-1">
          <mxGeometry x="250" y="180" width="80" height="80" as="geometry" />
        </mxCell>
        <mxCell id="AFiXjeC6E8ipY5qLFKD8-14" style="edgeStyle=none;rounded=0;orthogonalLoop=1;jettySize=auto;html=1;endArrow=none;endFill=0;" edge="1" parent="AFiXjeC6E8ipY5qLFKD8-1" source="AFiXjeC6E8ipY5qLFKD8-4" target="AFiXjeC6E8ipY5qLFKD8-7">
          <mxGeometry relative="1" as="geometry" />
        </mxCell>
        <mxCell id="AFiXjeC6E8ipY5qLFKD8-4" value="&lt;span style=&quot;font-size: 14px&quot;&gt;f&lt;/span&gt;&lt;span style=&quot;font-size: 10px&quot;&gt;&lt;sub&gt;2&lt;/sub&gt;&lt;/span&gt;&lt;span style=&quot;font-size: 14px&quot;&gt;t&lt;/span&gt;&lt;sub&gt;1&lt;/sub&gt;" style="ellipse;whiteSpace=wrap;html=1;aspect=fixed;" vertex="1" parent="AFiXjeC6E8ipY5qLFKD8-1">
          <mxGeometry x="250" y="270" width="80" height="80" as="geometry" />
        </mxCell>
        <mxCell id="AFiXjeC6E8ipY5qLFKD8-15" style="edgeStyle=none;rounded=0;orthogonalLoop=1;jettySize=auto;html=1;endArrow=none;endFill=0;" edge="1" parent="AFiXjeC6E8ipY5qLFKD8-1" source="AFiXjeC6E8ipY5qLFKD8-5" target="AFiXjeC6E8ipY5qLFKD8-6">
          <mxGeometry relative="1" as="geometry" />
        </mxCell>
        <mxCell id="AFiXjeC6E8ipY5qLFKD8-5" value="&lt;span style=&quot;font-size: 14px&quot;&gt;f&lt;/span&gt;&lt;sub&gt;3&lt;/sub&gt;&lt;span style=&quot;font-size: 14px&quot;&gt;t&lt;/span&gt;&lt;sub&gt;1&lt;/sub&gt;" style="ellipse;whiteSpace=wrap;html=1;aspect=fixed;" vertex="1" parent="AFiXjeC6E8ipY5qLFKD8-1">
          <mxGeometry x="250" y="360" width="80" height="80" as="geometry" />
        </mxCell>
        <mxCell id="AFiXjeC6E8ipY5qLFKD8-6" value="&lt;span style=&quot;font-size: 14px&quot;&gt;f&lt;/span&gt;&lt;sub&gt;3&lt;/sub&gt;&lt;span style=&quot;font-size: 14px&quot;&gt;t&lt;/span&gt;&lt;sub&gt;2&lt;/sub&gt;" style="ellipse;whiteSpace=wrap;html=1;aspect=fixed;" vertex="1" parent="AFiXjeC6E8ipY5qLFKD8-1">
          <mxGeometry x="350" y="360" width="80" height="80" as="geometry" />
        </mxCell>
        <mxCell id="AFiXjeC6E8ipY5qLFKD8-7" value="&lt;span style=&quot;font-size: 14px&quot;&gt;f&lt;/span&gt;&lt;sub&gt;2&lt;/sub&gt;&lt;span style=&quot;font-size: 14px&quot;&gt;t&lt;/span&gt;&lt;span style=&quot;font-size: 10px&quot;&gt;2&lt;/span&gt;" style="ellipse;whiteSpace=wrap;html=1;aspect=fixed;" vertex="1" parent="AFiXjeC6E8ipY5qLFKD8-1">
          <mxGeometry x="350" y="270" width="80" height="80" as="geometry" />
        </mxCell>
        <mxCell id="AFiXjeC6E8ipY5qLFKD8-8" value="&lt;span style=&quot;font-size: 14px&quot;&gt;f&lt;/span&gt;&lt;sub&gt;1&lt;/sub&gt;&lt;span style=&quot;font-size: 14px&quot;&gt;t&lt;/span&gt;&lt;span style=&quot;font-size: 10px&quot;&gt;2&lt;/span&gt;" style="ellipse;whiteSpace=wrap;html=1;aspect=fixed;" vertex="1" parent="AFiXjeC6E8ipY5qLFKD8-1">
          <mxGeometry x="350" y="180" width="80" height="80" as="geometry" />
        </mxCell>
        <mxCell id="AFiXjeC6E8ipY5qLFKD8-9" value="&lt;span style=&quot;color: rgb(0 , 0 , 0) ; font-family: &amp;#34;helvetica&amp;#34; ; font-size: 14px ; font-style: normal ; font-weight: 400 ; letter-spacing: normal ; text-align: center ; text-indent: 0px ; text-transform: none ; word-spacing: 0px ; background-color: rgb(248 , 249 , 250) ; display: inline ; float: none&quot;&gt;f&lt;/span&gt;&lt;sub style=&quot;color: rgb(0 , 0 , 0) ; font-family: &amp;#34;helvetica&amp;#34; ; font-style: normal ; font-weight: 400 ; letter-spacing: normal ; text-align: center ; text-indent: 0px ; text-transform: none ; word-spacing: 0px ; background-color: rgb(248 , 249 , 250)&quot;&gt;1&lt;/sub&gt;&lt;span style=&quot;color: rgb(0 , 0 , 0) ; font-family: &amp;#34;helvetica&amp;#34; ; font-size: 14px ; font-style: normal ; font-weight: 400 ; letter-spacing: normal ; text-align: center ; text-indent: 0px ; text-transform: none ; word-spacing: 0px ; background-color: rgb(248 , 249 , 250) ; display: inline ; float: none&quot;&gt;t&lt;/span&gt;&lt;sub style=&quot;color: rgb(0 , 0 , 0) ; font-family: &amp;#34;helvetica&amp;#34; ; font-style: normal ; font-weight: 400 ; letter-spacing: normal ; text-align: center ; text-indent: 0px ; text-transform: none ; word-spacing: 0px ; background-color: rgb(248 , 249 , 250)&quot;&gt;m&lt;/sub&gt;" style="ellipse;whiteSpace=wrap;html=1;aspect=fixed;" vertex="1" parent="AFiXjeC6E8ipY5qLFKD8-1">
          <mxGeometry x="750" y="180" width="80" height="80" as="geometry" />
        </mxCell>
        <mxCell id="AFiXjeC6E8ipY5qLFKD8-10" value="&lt;span style=&quot;font-family: &amp;#34;helvetica&amp;#34; ; font-size: 14px&quot;&gt;f&lt;/span&gt;&lt;span style=&quot;font-family: &amp;#34;helvetica&amp;#34; ; font-size: 10px&quot;&gt;&lt;sub&gt;2&lt;/sub&gt;&lt;/span&gt;&lt;span style=&quot;font-family: &amp;#34;helvetica&amp;#34; ; font-size: 14px&quot;&gt;t&lt;/span&gt;&lt;sub style=&quot;font-family: &amp;#34;helvetica&amp;#34;&quot;&gt;m&lt;/sub&gt;" style="ellipse;whiteSpace=wrap;html=1;aspect=fixed;" vertex="1" parent="AFiXjeC6E8ipY5qLFKD8-1">
          <mxGeometry x="750" y="270" width="80" height="80" as="geometry" />
        </mxCell>
        <mxCell id="AFiXjeC6E8ipY5qLFKD8-11" value="&lt;span style=&quot;font-family: &amp;#34;helvetica&amp;#34; ; font-size: 14px&quot;&gt;f&lt;/span&gt;&lt;span style=&quot;font-family: &amp;#34;helvetica&amp;#34; ; font-size: 10px&quot;&gt;&lt;sub&gt;3&lt;/sub&gt;&lt;/span&gt;&lt;span style=&quot;font-family: &amp;#34;helvetica&amp;#34; ; font-size: 14px&quot;&gt;t&lt;/span&gt;&lt;sub style=&quot;font-family: &amp;#34;helvetica&amp;#34;&quot;&gt;m&lt;/sub&gt;" style="ellipse;whiteSpace=wrap;html=1;aspect=fixed;" vertex="1" parent="AFiXjeC6E8ipY5qLFKD8-1">
          <mxGeometry x="750" y="360" width="80" height="80" as="geometry" />
        </mxCell>
        <mxCell id="AFiXjeC6E8ipY5qLFKD8-16" value="" style="endArrow=none;dashed=1;html=1;entryX=1;entryY=0.5;entryDx=0;entryDy=0;exitX=0;exitY=0.5;exitDx=0;exitDy=0;" edge="1" parent="AFiXjeC6E8ipY5qLFKD8-1" source="AFiXjeC6E8ipY5qLFKD8-9" target="AFiXjeC6E8ipY5qLFKD8-8">
          <mxGeometry width="50" height="50" relative="1" as="geometry">
            <mxPoint x="540" y="260" as="sourcePoint" />
            <mxPoint x="590" y="210" as="targetPoint" />
          </mxGeometry>
        </mxCell>
        <mxCell id="AFiXjeC6E8ipY5qLFKD8-17" value="" style="endArrow=none;dashed=1;html=1;exitX=1;exitY=0.5;exitDx=0;exitDy=0;entryX=0;entryY=0.5;entryDx=0;entryDy=0;" edge="1" parent="AFiXjeC6E8ipY5qLFKD8-1" source="AFiXjeC6E8ipY5qLFKD8-7" target="AFiXjeC6E8ipY5qLFKD8-10">
          <mxGeometry width="50" height="50" relative="1" as="geometry">
            <mxPoint x="470" y="350" as="sourcePoint" />
            <mxPoint x="520" y="300" as="targetPoint" />
          </mxGeometry>
        </mxCell>
        <mxCell id="AFiXjeC6E8ipY5qLFKD8-18" value="" style="endArrow=none;dashed=1;html=1;exitX=1;exitY=0.5;exitDx=0;exitDy=0;entryX=0;entryY=0.5;entryDx=0;entryDy=0;" edge="1" parent="AFiXjeC6E8ipY5qLFKD8-1" source="AFiXjeC6E8ipY5qLFKD8-6" target="AFiXjeC6E8ipY5qLFKD8-11">
          <mxGeometry width="50" height="50" relative="1" as="geometry">
            <mxPoint x="470" y="350" as="sourcePoint" />
            <mxPoint x="520" y="300" as="targetPoint" />
          </mxGeometry>
        </mxCell>
        <mxCell id="AFiXjeC6E8ipY5qLFKD8-19" value="" style="endArrow=classic;html=1;" edge="1" parent="AFiXjeC6E8ipY5qLFKD8-1">
          <mxGeometry width="50" height="50" relative="1" as="geometry">
            <mxPoint x="240" y="480" as="sourcePoint" />
            <mxPoint x="840" y="480" as="targetPoint" />
          </mxGeometry>
        </mxCell>
        <mxCell id="AFiXjeC6E8ipY5qLFKD8-20" value="Timesteps" style="text;html=1;align=center;verticalAlign=middle;resizable=0;points=[];autosize=1;" vertex="1" parent="AFiXjeC6E8ipY5qLFKD8-1">
          <mxGeometry x="500" y="490" width="70" height="20" as="geometry" />
        </mxCell>
        <mxCell id="AFiXjeC6E8ipY5qLFKD8-21" value="" style="endArrow=classic;html=1;" edge="1" parent="AFiXjeC6E8ipY5qLFKD8-1">
          <mxGeometry width="50" height="50" relative="1" as="geometry">
            <mxPoint x="860" y="170" as="sourcePoint" />
            <mxPoint x="860" y="450" as="targetPoint" />
          </mxGeometry>
        </mxCell>
        <mxCell id="AFiXjeC6E8ipY5qLFKD8-22" value="Features" style="text;html=1;align=center;verticalAlign=middle;resizable=0;points=[];autosize=1;" vertex="1" parent="AFiXjeC6E8ipY5qLFKD8-1">
          <mxGeometry x="860" y="300" width="60" height="20" as="geometry" />
        </mxCell>
        <mxCell id="AFiXjeC6E8ipY5qLFKD8-24" value="" style="endArrow=classic;html=1;" edge="1" parent="AFiXjeC6E8ipY5qLFKD8-1">
          <mxGeometry width="50" height="50" relative="1" as="geometry">
            <mxPoint x="210" y="450" as="sourcePoint" />
            <mxPoint x="160" y="400" as="targetPoint" />
          </mxGeometry>
        </mxCell>
        <mxCell id="AFiXjeC6E8ipY5qLFKD8-25" value="Samples" style="text;html=1;align=center;verticalAlign=middle;resizable=0;points=[];autosize=1;rotation=45;" vertex="1" parent="AFiXjeC6E8ipY5qLFKD8-1">
          <mxGeometry x="140" y="420" width="60" height="20" as="geometry" />
        </mxCell>
        <mxCell id="AFiXjeC6E8ipY5qLFKD8-26" value="[Samples, Time Steps, Features]" style="text;html=1;strokeColor=none;fillColor=none;align=center;verticalAlign=middle;whiteSpace=wrap;rounded=0;" vertex="1" parent="AFiXjeC6E8ipY5qLFKD8-1">
          <mxGeometry x="220" y="510" width="220" height="20" as="geometry" />
        </mxCell>
      </root>
    </mxGraphModel>
  </diagram>
</mxfile>
